# xmcd CD database file
#
# Track frame offsets:
#	150
#	15102
#	35227
#	48550
#	65625
#	82535
#	96107
#	121072
#	130905
#	142982
#
# Disc length: 2136 seconds
#
# Revision: 0
# Processed by: cddbd v1.5.1PL0 Copyright (c) Steve Scherf et al.
# Submitted via: CDex 1.51
#
DISCID=7808560a
DTITLE=Les Brown - Thru' The Years
DYEAR=1900
DGENRE=Country
TTITLE0=Gimme Your Loving
TTITLE1=I'm Going Home
TTITLE2=The Truckers Song
TTITLE3=Out In The Country
TTITLE4=It's A Long, Long Way
TTITLE5=Woman You Should Be In Movies
TTITLE6=A Hand To Hold
TTITLE7=Just Another One
TTITLE8=Honky Tonk Blues
TTITLE9=Close To You
EXTD=
EXTT0=
EXTT1=
EXTT2=
EXTT3=
EXTT4=
EXTT5=
EXTT6=
EXTT7=
EXTT8=
EXTT9=
PLAYORDER=
